<?xml version="1.0" encoding="UTF-8"?>
<svg width="318px" height="29px" viewBox="0 0 318 29" xmlns="http://www.w3.org/2000/svg" xmlns:xlink="http://www.w3.org/1999/xlink" version="1.1">
 <!-- Generated by Pixelmator Pro 2.1.2 -->
 <g id="group">
  <path id="Path" d="M177.426 15.343 C178.344 16.26 179.499 17 180.796 17 L306 17 C312.627 17 318 22.372 318 29 L318 452 C318 458.627 312.627 464 306 464 L12 464 C5.373 464 -0 458.627 -0 452 L-0 29 C-0 22.372 5.373 17 12 17 L137.287 17 C138.584 17 139.74 16.26 140.657 15.343 L153.385 2.615 C156.509 -0.509 161.574 -0.509 164.698 2.615 Z" fill="#e61c24" fill-opacity="1" stroke="none"/>
 </g>
 <path id="Path-1" d="M163 12 L159 8 155 12" fill="none" stroke="#ffffff" stroke-width="1.5" stroke-opacity="1" stroke-linejoin="round" stroke-linecap="round"/>
</svg>
