<?xml version="1.0" standalone="no"?>
<!DOCTYPE svg PUBLIC "-//W3C//DTD SVG 20010904//EN"
 "http://www.w3.org/TR/2001/REC-SVG-20010904/DTD/svg10.dtd">
<svg version="1.0" xmlns="http://www.w3.org/2000/svg"
 width="304.000000pt" height="117.000000pt" viewBox="0 0 304.000000 117.000000"
 preserveAspectRatio="xMidYMid meet">

<g transform="translate(0.000000,117.000000) scale(0.100000,-0.100000)"
fill="#000000" stroke="none">
<path d="M470 1070 c0 -118 4 -121 76 -55 26 25 53 45 60 45 6 0 18 7 25 17 8
9 36 34 62 55 l49 38 -136 0 -136 0 0 -100z"/>
<path d="M724 1125 c-28 -19 -59 -46 -68 -60 -9 -14 -24 -25 -34 -25 -10 0
-38 -20 -62 -45 -37 -38 -50 -45 -82 -45 -45 0 -51 -20 -16 -57 20 -21 21 -26
8 -46 -7 -12 -15 -38 -17 -57 -2 -19 -24 -74 -48 -122 -48 -93 -54 -118 -30
-118 12 0 13 -4 3 -25 -10 -22 -18 -25 -62 -25 -40 -1 -57 -6 -79 -26 -29 -24
-29 -25 -11 -52 70 -107 252 -229 399 -267 149 -38 335 2 450 99 29 25 29 25
-25 -3 -30 -16 -75 -35 -99 -42 -42 -12 -45 -12 -63 11 -19 24 -19 24 4 33 23
8 22 8 -8 23 -39 19 -57 55 -48 102 6 33 6 35 -17 29 l-24 -6 25 19 c14 11 36
23 49 26 27 8 131 -22 131 -37 0 -15 46 -11 60 6 10 11 9 18 -3 30 -9 8 -21
15 -27 15 -14 0 -60 46 -60 60 0 13 45 13 70 0 10 -5 20 -20 24 -34 5 -20 11
-24 43 -22 33 2 93 29 93 43 0 4 -81 84 -127 124 -17 14 -49 35 -71 45 -42 19
-46 27 -46 106 0 15 -2 15 -27 2 -15 -7 -37 -27 -48 -43 -13 -18 -33 -31 -55
-35 -18 -4 -55 -18 -82 -31 -27 -14 -52 -25 -56 -25 -4 0 -10 21 -14 48 -4 26
-14 52 -23 59 -14 11 -12 12 15 13 41 0 61 18 73 67 11 38 58 93 82 93 5 0 9
11 9 25 0 29 -31 50 -48 33 -7 -7 -12 -9 -12 -5 0 4 -16 -10 -35 -31 -30 -33
-34 -34 -35 -16 0 30 30 65 58 67 12 1 22 5 22 10 0 4 4 6 9 2 25 -15 22 113
-3 134 -8 7 -28 -1 -62 -24z m-96 -137 c-3 -7 -13 -15 -24 -17 -16 -3 -17 -1
-5 13 16 19 34 21 29 4z m408 -385 c-8 -8 -36 5 -36 17 0 7 6 7 21 0 11 -7 18
-14 15 -17z"/>
<path d="M1290 1036 l0 -76 258 0 c285 0 302 -3 302 -60 0 -57 -12 -60 -226
-60 l-194 0 0 -64 0 -64 198 -4 c219 -3 232 -7 232 -62 0 -62 7 -61 -295 -64
l-275 -3 0 -75 0 -75 328 3 c325 3 327 3 369 27 55 31 73 71 73 158 0 90 -13
113 -78 139 l-52 21 38 11 c65 20 77 41 77 142 0 79 -2 91 -24 114 -55 59 -68
61 -413 64 l-318 3 0 -75z"/>
<path d="M2140 770 l0 -341 388 3 387 3 39 24 c68 42 76 74 76 311 0 194 -1
208 -22 250 -17 33 -35 51 -68 68 -44 22 -50 22 -422 22 l-378 0 0 -340z m694
164 c23 -23 23 -305 0 -328 -13 -14 -51 -16 -255 -16 l-239 0 0 180 0 180 239
0 c204 0 242 -2 255 -16z"/>
<path d="M782 878 c-5 -7 -15 -32 -21 -55 -6 -23 -23 -51 -36 -61 -17 -13 -25
-30 -25 -50 l0 -30 50 21 50 21 0 83 c0 46 -2 83 -4 83 -2 0 -8 -6 -14 -12z"/>
<path d="M0 559 l0 -169 106 0 c113 0 110 -2 72 52 l-19 27 25 7 c32 8 46 25
56 68 10 47 -4 58 -82 58 -76 1 -98 16 -98 67 0 31 -4 38 -30 48 l-30 11 0
-169z"/>
<path d="M990 720 c0 -5 21 -21 48 -36 26 -15 52 -32 57 -39 6 -6 29 -28 53
-49 l42 -38 0 86 0 86 -100 0 c-57 0 -100 -4 -100 -10z"/>
<path d="M1166 455 c-11 -8 -31 -15 -45 -15 -18 0 -30 -8 -38 -25 l-11 -25 59
0 59 0 0 40 c0 22 -1 40 -2 40 -2 0 -12 -7 -22 -15z"/>
<path d="M874 416 c-9 -24 -2 -27 57 -24 52 3 53 4 26 16 -53 23 -76 25 -83 8z"/>
<path d="M1286 328 c-4 -29 -10 -70 -13 -90 -5 -34 -3 -38 15 -38 16 0 24 9
30 32 l8 32 23 -32 c19 -28 28 -32 66 -32 34 0 47 5 55 20 6 11 21 20 34 20
15 0 26 -7 29 -20 3 -12 14 -20 26 -20 25 0 25 -4 4 98 -15 71 -20 82 -38 82
-16 0 -30 -19 -64 -87 l-42 -86 -19 27 c-17 27 -17 29 1 47 25 25 25 75 0 89
-11 5 -40 10 -64 10 l-44 0 -7 -52z m89 -8 c0 -8 -10 -16 -22 -18 -18 -3 -23
2 -23 18 0 16 5 21 23 18 12 -2 22 -10 22 -18z m141 -38 c-11 -10 -15 4 -8 28
l7 25 3 -23 c2 -13 1 -26 -2 -30z"/>
<path d="M1616 328 c-4 -29 -10 -70 -13 -90 -5 -34 -3 -38 16 -38 16 0 23 8
28 30 5 26 10 30 39 30 36 0 64 28 64 67 0 35 -26 53 -79 53 l-48 0 -7 -52z
m90 0 c7 -10 -20 -38 -38 -38 -4 0 -8 11 -8 25 0 18 5 25 19 25 11 0 23 -5 27
-12z"/>
<path d="M1777 338 c-4 -24 -9 -64 -13 -90 -6 -44 -5 -48 15 -48 11 0 21 1 22
3 0 1 6 41 13 90 12 87 12 87 -10 87 -18 0 -23 -7 -27 -42z"/>
<path d="M1857 358 c-4 -13 -9 -54 -13 -92 l-7 -69 52 5 c64 6 82 23 92 85 11
70 -7 93 -70 93 -42 0 -50 -3 -54 -22z m83 -40 c0 -43 -12 -68 -31 -68 -14 0
-19 7 -19 29 0 42 10 61 31 61 13 0 19 -7 19 -22z"/>
<path d="M270 300 c-8 -5 -12 -11 -10 -14 3 -2 14 2 24 10 22 15 10 19 -14 4z"/>
<path d="M285 280 c-3 -6 1 -13 9 -16 9 -3 13 -10 10 -15 -9 -15 13 -10 26 6
10 12 10 15 -4 15 -9 0 -16 5 -16 10 0 13 -17 13 -25 0z"/>
<path d="M329 233 c-8 -9 -9 -14 -3 -10 7 4 15 0 18 -9 5 -13 9 -14 21 -4 9 7
13 15 10 19 -3 3 -11 -1 -16 -9 -8 -12 -10 -10 -6 8 6 26 -5 29 -24 5z"/>
<path d="M376 201 c-15 -16 -15 -19 -2 -24 11 -4 13 -1 9 10 -5 12 -3 14 7 8
8 -5 11 -4 6 3 -3 5 0 13 6 15 8 3 8 6 2 6 -6 1 -19 -7 -28 -18z"/>
<path d="M410 185 c-14 -17 -4 -39 15 -31 7 2 16 -2 19 -9 3 -8 12 -12 21 -9
9 4 15 1 15 -7 0 -18 20 10 20 29 0 10 -5 10 -22 1 -18 -10 -20 -9 -15 5 4 10
3 15 -2 12 -5 -3 -11 1 -15 9 -7 19 -20 19 -36 0z m24 -10 c-6 -16 -24 -21
-24 -7 0 11 11 22 21 22 5 0 6 -7 3 -15z"/>
<path d="M1003 172 c-8 -5 -8 -14 3 -32 l15 -25 -6 30 c-4 24 -3 27 5 13 15
-25 33 -23 20 2 -12 22 -18 24 -37 12z"/>
<path d="M1286 128 c-4 -29 -10 -70 -13 -90 -5 -34 -3 -38 16 -38 16 0 23 8
28 31 l6 30 26 -31 c19 -23 33 -31 50 -29 l23 4 -21 27 -22 27 21 21 c26 26
27 76 1 90 -11 5 -40 10 -64 10 l-44 0 -7 -52z m89 -8 c0 -8 -10 -16 -22 -18
-18 -3 -23 2 -23 18 0 16 5 21 23 18 12 -2 22 -10 22 -18z"/>
<path d="M1457 165 c-4 -8 -9 -48 -13 -90 l-7 -76 59 3 c47 2 59 7 62 20 3 15
-4 18 -32 18 -25 0 -36 4 -36 15 0 10 11 15 35 15 28 0 35 4 35 20 0 16 -7 20
-36 20 -51 0 -39 24 14 28 34 3 42 7 42 23 0 17 -7 19 -59 19 -42 0 -60 -4
-64 -15z"/>
<path d="M1618 169 c-38 -22 -10 -99 36 -99 10 0 16 -6 13 -12 -2 -8 -18 -12
-40 -10 -42 3 -57 -13 -31 -33 37 -28 98 -13 113 28 12 30 -4 56 -40 69 -39
13 -37 28 4 28 40 0 51 8 36 27 -13 15 -66 17 -91 2z"/>
<path d="M1746 113 c-4 -38 -10 -79 -13 -91 -5 -20 -2 -23 18 -20 15 2 25 12
29 28 4 19 13 26 35 28 40 5 65 29 65 63 0 41 -24 59 -79 59 l-48 0 -7 -67z
m89 17 c8 -13 -13 -40 -31 -40 -8 0 -14 10 -14 25 0 18 5 25 19 25 11 0 23 -5
26 -10z"/>
<path d="M1925 155 c-14 -13 -25 -34 -25 -47 0 -13 -3 -33 -6 -45 -8 -28 27
-63 65 -63 47 0 77 32 85 91 6 41 4 55 -10 70 -25 28 -79 25 -109 -6z m75 -54
c0 -41 -20 -67 -45 -57 -32 12 -10 96 25 96 17 0 20 -7 20 -39z"/>
<path d="M2076 118 c-4 -35 -10 -76 -13 -91 -5 -26 -3 -28 18 -25 21 3 24 9
27 52 l3 49 24 -51 c17 -37 30 -52 43 -52 23 0 27 15 37 113 7 63 6 67 -13 67
-17 0 -21 -9 -27 -52 l-7 -52 -20 52 c-16 42 -24 52 -42 52 -21 0 -24 -6 -30
-62z"/>
<path d="M2272 173 c-20 -8 -34 -51 -22 -73 5 -10 24 -23 41 -29 40 -14 28
-34 -16 -25 -21 4 -35 1 -40 -7 -11 -16 22 -39 55 -39 72 0 97 81 33 109 -42
19 -42 31 0 31 40 0 51 8 36 27 -11 13 -61 17 -87 6z"/>
<path d="M2396 118 c-4 -35 -10 -75 -13 -90 l-5 -28 60 0 c45 0 61 4 66 16 9
24 9 24 -34 24 -29 0 -40 4 -40 15 0 11 11 15 40 15 33 0 40 3 40 20 0 16 -7
20 -35 20 -24 0 -35 5 -35 15 0 11 11 15 39 15 34 0 51 12 51 36 0 2 -29 4
-64 4 l-63 0 -7 -62z"/>
<path d="M520 150 c0 -5 -3 -17 -6 -27 -5 -17 -5 -17 6 0 17 26 33 21 26 -8
-5 -20 -3 -25 11 -25 15 0 16 2 3 10 -12 8 -12 10 5 11 13 0 15 3 6 6 -9 4
-10 8 -2 12 6 4 -2 12 -19 18 -17 6 -30 8 -30 3z"/>
<path d="M963 152 c-8 -5 -8 -13 1 -31 13 -23 13 -23 19 -2 3 13 1 19 -6 14
-6 -4 -8 0 -4 10 7 19 7 20 -10 9z"/>
<path d="M910 131 c0 -20 13 -41 25 -41 21 0 28 19 15 35 -14 17 -40 20 -40 6z
m34 -16 c3 -8 1 -15 -3 -15 -5 0 -11 7 -15 15 -3 8 -1 15 3 15 5 0 11 -7 15
-15z"/>
<path d="M616 115 c-3 -9 -6 -24 -6 -33 0 -15 2 -15 10 -2 9 13 11 13 20 0 8
-12 10 -8 8 14 -3 33 -22 45 -32 21z"/>
<path d="M891 116 c-1 -15 -4 -16 -16 -6 -12 10 -15 10 -15 -1 0 -18 20 -49
20 -32 0 7 7 10 15 7 17 -7 18 1 5 31 -8 19 -9 19 -9 1z"/>
<path d="M670 90 c0 -22 5 -30 18 -29 10 0 12 3 5 6 -7 2 -13 13 -13 23 0 10
6 21 13 23 7 3 5 6 -5 6 -13 1 -18 -7 -18 -29z"/>
<path d="M814 105 c-7 -17 2 -45 13 -45 24 1 35 18 24 39 -14 25 -29 27 -37 6z
m26 -16 c0 -11 -4 -17 -10 -14 -5 3 -10 13 -10 21 0 8 5 14 10 14 6 0 10 -9
10 -21z"/>
<path d="M710 99 c0 -5 5 -7 10 -4 6 3 10 8 10 11 0 2 -4 4 -10 4 -5 0 -10 -5
-10 -11z"/>
<path d="M761 85 c0 -16 3 -24 6 -17 2 6 11 12 19 12 8 0 14 8 14 18 0 14 -2
15 -10 2 -9 -13 -11 -13 -20 0 -7 12 -10 8 -9 -15z"/>
<path d="M736 77 c3 -10 9 -15 12 -12 3 3 0 11 -7 18 -10 9 -11 8 -5 -6z"/>
<path d="M470 40 l0 -40 165 0 c162 0 165 0 165 21 0 19 -4 21 -31 15 -40 -8
-208 11 -259 29 l-40 14 0 -39z"/>
</g>
</svg>
